<?xml version="1.0" encoding="UTF-8"?>
<svg id="Layer_2" data-name="Layer 2" xmlns="http://www.w3.org/2000/svg" viewBox="0 0 182.96 176.47">
  <defs>
    <style>
      .cls-1 {
        fill: #9cdaeb;
      }

      .cls-2 {
        fill: #67b947;
      }

      .cls-3 {
        fill: #fcf0d5;
      }

      .cls-4 {
        fill: #73c8e7;
      }

      .cls-5 {
        fill: #9bcd63;
      }

      .cls-6 {
        fill: #35a349;
      }

      .cls-7 {
        fill: #89c040;
      }

      .cls-8 {
        fill: #fcd309;
      }

      .cls-9 {
        fill: #2e9dcf;
      }

      .cls-10 {
        fill: #f36e21;
      }

      .cls-11 {
        font-family: ArialRoundedMTBold, 'Arial Rounded MT Bold';
        font-size: 54.39px;
      }

      .cls-11, .cls-12 {
        fill: #138943;
      }

      .cls-13 {
        fill: #f2f5ee;
      }

      .cls-14 {
        fill: #086844;
      }

      .cls-15 {
        fill: #8bc03f;
      }

      .cls-16 {
        fill: #42a84d;
      }

      .cls-17 {
        fill: #449a48;
      }

      .cls-18 {
        fill: #1d8eb4;
      }

      .cls-19 {
        fill: #fefefd;
      }

      .cls-20 {
        fill: #065130;
      }
    </style>
  </defs>
  <g id="Layer_1-2" data-name="Layer 1">
    <g>
      <g>
        <path class="cls-12" d="M27.1,84.22c5.82-1.91,11.56-3.99,17.47-5.62,36.11-9.97,75.93-10.46,112.54-2.68,4.24.9,10.39,2.06,14.31,3.64,1.94.79,3.14,2.79,1.21,4.31-1.58,1.25-5.24-.48-7.19-.97-42.93-10.8-89-10.35-131.05,3.95-2.74.93-6.41,2.8-9.01,3.43-1.67.4-2.53-.16-3.26-1.68.57-5.5.13-14.47-5.97-16.77-3.22-1.21-7.22-.4-10.46.44-1.58.4-4.46,2.12-5.46-.31-1.36-3.34,3.52-4.27,5.84-4.8,5.17-1.19,10.97-1.46,15.28,2.11s5.67,9.52,5.74,14.96Z"/>
        <path class="cls-12" d="M49.36,154.82l1.96-1.03c11.26-4.62,23.09-7.99,35.09-10.15,22.83-4.1,46.27-4.28,69.32-1.98,2.73.92,2.42,4.36-.48,4.76-27.58-4.03-56.36-4.29-83.64,1.81-7.58,1.69-14.94,4.03-22.25,6.58Z"/>
        <path class="cls-12" d="M132.36,149.14c14.9-2.02,16.47,19.97,2.81,21-14.19,1.06-15.4-19.29-2.81-21ZM133.8,153.68c-6.96.38-7.3,10.85-.76,11.65,9.22,1.12,8.74-12.08.76-11.65Z"/>
        <path class="cls-12" d="M67.02,155.37c13.94-1.46,15.59,19.32,3.03,20.98-15.02,1.98-16.81-19.53-3.03-20.98ZM71.96,170.24c5.71-5.22-1.61-13.4-7.39-8.95-6.36,4.88,1.52,14.32,7.39,8.95Z"/>
        <text class="cls-11" transform="translate(39.15 145.46) rotate(-24.58) scale(.92 1)"><tspan x="0" y="0">E</tspan></text>
        <text class="cls-11" transform="translate(67.91 132.26) rotate(-13.31) scale(.92 1)"><tspan x="0" y="0">L</tspan></text>
        <text class="cls-11" transform="translate(94.88 125.32) rotate(-1.57) scale(.92 1)"><tspan x="0" y="0">A</tspan></text>
        <text class="cls-11" transform="translate(128.91 124.07) rotate(11.59) scale(.92 1)"><tspan x="0" y="0">N</tspan></text>
      </g>
      <g>
        <path class="cls-10" d="M74.11,19.29c.82.08,2.72.4,4.62,1.46,2.93,1.64,4.4,4.34,6.7,8.58.66,1.21,1.32,2.55,1.32,2.55.21.38.33.68.37.76.95,1.98,2.32,4.11,3.35,6.13.32.63.62,1.25,1.2,2.49,1.04,2.2,1.18,2.63,1.93,4.19.13.26.47.96.91,1.94.19.42.32.73.36.82.31.71.92,2.01,2.2,4.56,0,.1,0,.2,0,.3.02,2.15-.8,4.12-.94,6.24-.24,3.49.57,6.97,1.88,10.18l-14.57.55c-3.52-3.72-5-5.17-5.55-5.59-.06-.04-.4-.3-.84-.68-.45-.39-.81-.73-1.06-.97-.63-.71-1.26-1.42-1.89-2.13l-2.52-3.04c.09-.23-.16-.79.07-1.14.34-.53,2.72-1.26,2.77-2.37-.63-2.28-1.42-4.58-2.84-6.39-1.56-1.99-4.6-3.77-7.24-4.58-.4-.12-.92.16-1.1.13-.2-.04-.03-.53-.61-.58-.61-.06-2.1.14-2.69.34-2.28-4.77-4.73-8.68-3.13-14.13.74-2.53,3.65-5.84,5.96-7.17.17-.1,3.14-1.41,3.46-1.52.57-.2,3.22-.85,3.77-.91,1.03-.12,3.04-.1,4.09,0ZM74.33,22.12c-.76-.33-2.5.16-3.38.35-1.2.27-2.31.68-3.46,1.07-.02.52-.17.65.45.59,3.24-.34,6.81-2.31,9.3,1.09.14.7-.32.38-.74.49-3,.79-6.64,1.65-8.37,4.38,3.3-1.73,6.52-3.49,10.47-2.9l1.48,2.13c-4.55.28-8.81,2.61-11.32,6.24,1.76-.96,3.11-2.57,4.97-3.41,2.25-1.02,5.08-1.55,7.56-1.26l.99,2.38-5.79,1.49-.18.94,6.91-1.07.95,1.98c-3.09.26-6.18,2.11-7.87,4.56,1.16.17,1.56-.97,2.41-1.47,1.87-1.1,4.22-1.93,6.4-1.74l.94,1.99c-2.03.34-4.21,1.3-5.35,3.04,2.18-.56,4.16-1.96,6.56-1.47l.68,1.47c-1.41.32-3.01.83-3.77,2.13,2.22.03,4.91-2.31,5.37,1.04-2.07.91-3.76,2.48-4.11,4.74l2.53-2.57c3.47-2.41,3.26,2.15,5.33,3.79-3.15-7.84-6.87-16.49-11.7-23.52-.8-1.16-3.74-4.98-4.75-5.6-.18-.11-1.9-.63-2.52-.9ZM67.66,30.24c-.5.47-1.28,1.08-1.26,1.81.38-.55,1.12-1.18,1.26-1.81ZM93.45,52.44v.3c.2-.1.2-.2,0-.3Z"/>
        <path class="cls-14" d="M59.95,43.01c.59-.2,2.08-.39,2.69-.34.58.05.41.55.61.58.19.03.71-.25,1.1-.13,2.64.81,5.68,2.59,7.24,4.58,1.42,1.81,2.21,4.11,2.84,6.39-.05,1.11-2.43,1.85-2.77,2.37-.23.35.02.91-.07,1.14-.03.09-.28.19-.31.3-.2.66-.88,2.37-.94,2.74l-1.89.61c0-.1.41-.46.29-.57-.1-.1-.59-.08-.76-.33-.26-.4-.09-1.03-.34-1.51-.69-1.32-1.78-1.15-2.02-2.76,1.99-.35.91.71,1.31,1.17.06.07,1.61.67,1.7.67.64,0,.55-.6.88-.84.19-.14.61-.04.74-.16.27-.23.21-.66.4-.93.14-.19.51-.21.54-.29.27-.59.02-1.73.1-2.5.06-.5.45-.84.46-1.41,0-1.93-1.13-3.58-2.51-4.86-.27-.24-.84-.19-1.02-.37-.2-.2-.11-.8-.39-1.01-.08-.06-1.77-.32-2-.34-1.02-.11-.55.88-1.14-1.17-.99-.14-2.68-.57-3.58-.08-.66.36-.4.95-.59,1.1-.23.2-.91-.11-1.35.38-.14.15-1.51,2.3-1.56,2.44-.2.6-.44,1.49.13,1.96.79.32,1.64.46,2.47.67.55.14,1.18-.19,1,.69-.66-.12-1.72-.31-2.36-.33-1.34-.05-2,1.03-2.85-.9l-3.29,2.45c.2-.99.67-2.69.02-3.53-.45-.7-1.01-.1-1.41-.13-.26-.02.18-1.09-2.07-.15-1.77.74-2.07,2.2-3.63,3.18-1.32.83-3.14,1.08-4.22,2.31-.16.19-2.49,4-2.57,4.23-.16.49-.03,1.12-.15,1.52-.57,1.91-2.21,6.53-.78,8.25.25.31.85.36.93.48.12.17-.25.66-.2.97.12.82,1.75,2.13,2.56,2.04.16-.02.13-.43.43-.6.27-.14.94.05,1.2-.31.29-.4-.03-1.27.18-1.5.11-.11.64-.04.85-.22.88-.76,1.38-1.56,2.83-1.69l-.27-2.7c.73.41.85,1.7,2.02,1.53.09-.01.37-1.06,1.43-.62-.09-.91.16-2.01-.01-2.87-.12-.63-.68-.95-.8-1.38-.07-.22,1-4.04,1.14-4.33.19-.39.78-.36.87-.72.07-.26-.32-.7-.12-1.04s.88-.4,1.12-.61c2.1-1.77,1.24-1.72,4.19-2.24.33-.06.68-.56,1-.5.35.06.43.88.48.92-.86.38-1.54,1.08-2.34,1.55-.47.27-1.18.19-1.38.35-.12.1-.01.57-.16.72-2.01,2.07-4.05,3.79-3.01,6.87.08.25.89.44.6,1.16.85.19.55-.44.94-.91.08.53-.28,1.02.39.21.41-.49,2.68-.87,3.37-1.29l2.95-.46c.48,1.1,3.78,2.45,4.12,3.35.21.56-.54,2.72.18,3.66,1.36-.07,1.24-1.16,1.25-2.13l.94-1.69c-.21-.57.03-1.69,0-1.96l.98.76c-.29.75-.33,2.85-.57,3.41-.05.12-1.3,2.09-1.41,2.17-1.24.79-4.21-.75-3.95,3.17.08,1.16,1,1.88,1.13,2.58.27,1.45-1.72,2.09-2.81,2.41l-.6,3.76-1.08-.27c-1.3.99-.36,1.51-.18,2.09.05.15-.02.41,0,.61,0,.05,0,.86,0,.91-.01.2.04.45,0,.61-.7.48-2.52.88-2.83,1.52-.04.08.03.21,0,.3-.78-.14-1.25,1-.94,1.52h-.94s0-1.01,0-1.01l-1.58-.21c.46-.94.41-2.34.48-2.45.18-.31,1.13-.56,1.43-1.03.07-.11,1.06-2.16,1.09-2.28.15-.58-.09-1.75.13-2.45-.49-.08-1.11-.13-1.57-.31-1.52-.62-1.67-1.04-2.52-2.43-.5-.83-.29-2.05-2.04-2.43-.63.26-.36,1.38-.5,1.5-.14.12-.74-.08-.98.04-.28.13-.23.42-.5.56-.23.13-.77,0-1.01.17-.57.38-.12,1.38-.35,1.64-.12.14-1.06.04-1.39.65-.34.64.17,1.16.08,1.63-.06.3-.45.61-.53,1.11-.3-.04-.68.06-.94,0-.06-.59.04-1.23,0-1.83.23-.03.53.13.66-.18.38-.82.19-1.74.43-2.58.14-.48,1.29-3.09,1.5-3.26.24-.19,2.19-.35,2.75-.84.51-.44.44-2.09,1.89-1.15l.63,1.62v-3.34c-1.4.56-2.54.74-4.07.62.31,1.68-1.02,1.4-1.76,2.1-.54.52-.55,1.81-1.5,1.78-.33,0-.76-.37-1.11-.39-1.87-.12-2,.76-2.74-1.66-.25-.82-.23-2.19-1.08-2.91-.22-.19-.53-.09-.63-.15-.19-1.11.3-2.06.31-3.04.03-1.48-.49-2.08-.63-3.04-.04-.29.03-.62,0-.91.38-.98,1.4-2.18,1.68-3.09s.12-1.72.45-2.6c1.32-3.49,4.11-3.14,6.52-4.95.36-.27.53-.83.99-1.17,1.94-1.44,6.62-3.07,8.94-2.34.62.19.9.89,1.55.78-.02-1.36,1.1-2.24,1.9-3.2.48-.58.34-1.26,1.57-1.67ZM51.46,73.13c-.02.61-.22,1.14-.07,1.74.39,1.54,2.47,2.45,4.01,2.05.14-.04,2.25-1.42,2.34-1.52.32-.31,1.43-2.99,1.48-3.39.12-.92-.64-2.37-.33-3.38.33-1.08,1.68-1.18,1.69-2.69,0-.34-.73-2.17-.96-2.38-.11-.11-.53-.14-.79-.29-.13-.08-.15-.45-.35-.48-.52-.09-1.21.26-1.83.31-.38.03-.81-.26-1.2-.21-.3.04-2.16,1.06-2.42,1.35-.18.2-2.14,3.67-2.19,3.88-.28,1.43.19,3.5,0,5.02.2.03.43-.03.63,0Z"/>
        <path class="cls-7" d="M139.22,24.76c.2-.02.43,0,.63,0,.34.01,1.25-.14,1.26.16-.4,1.91-1.05,3.75-1.58,5.62-.03.09.03.21,0,.3-1.34,2.22-2.23,4.64-3.77,6.69-.18.24-.89,1.16-.94,1.22-.1.1-.23.19-.31.3l-5.03,3.65c-.32.43-2.02,2.65-5.11,3.1-2.48.36-4.37-.64-4.95-.97.4-1.42.52-3.57.94-4.87.35-1.09.73-1.98.94-2.43.23-.5.46-.91.63-1.22.29-.4.57-.81.86-1.21,1.14-1.8,2.28-3.09,3.11-3.93,0,0,6.06-5.76,13.34-6.42Z"/>
        <path class="cls-5" d="M71.59,58.83c.74,3.53,1.71,8.57,4.72,10.95.08,1.24,1.28,1.78,1.89,2.74-1.33.32-3.84,1-5.03,1.52-.45-.49-1.11-1.44-1.57-1.83l-4.72-3.95c.16-.17.29-1.03.94-1.22.18.07.57-.04.92.17.72.44,1.41,1.14,2.08,1.65.19.14.98.89,1.09.31.59.51,1.53.82,2.05,1.51-1.13-1.93-2.91-3.72-4.88-4.86-.06-.06-.25-.25-.31-.3v-.3l.31-.15-.31-.15c-.89.17-.53-.47-.63-.61-.47-1.01.54-1.61.63-1.83l1.57.91c.23-.28-.07-2.35,0-2.74.07-.36.74-2.08.94-2.74.19.28.25.59.31.91ZM74.58,71v.3c.2-.1.2-.2,0-.3Z"/>
        <path class="cls-20" d="M52.72,52.44l3.29-2.45c.85,1.94,1.51.85,2.85.9.64.02,1.7.21,2.36.33.1.02.22-.02.31,0v.61s.63-.3.63-.3c.48.16.83.36,1.26.61.08.79.77,1.44,1.57,1.52.04.18-.03.41,0,.61.06.49-.05,1.02,0,1.52h.63c.01.1-.01.2,0,.3.24,1.6,1.33,1.43,2.02,2.76.25.48.08,1.11.34,1.51.16.25.66.23.76.33.12.12-.3.47-.29.57,0,.1,0,.2,0,.3h-1.89c-.47.42,1.26,2.31,1.57,2.74.1.14-.26.78.63.61v.61c-.24-.2-.59-.33-.79-.6l-.32.29c-.22.51-.4,1.6.16,1.83-.65.19-.79,1.05-.94,1.22-.06.07-.29.29-.31.3-1.16.61-.86.64-1.26.91-.29.2-1.49-.24-1.26,1.22-1.06,0-1.41-.88-2.51-.3,0,1.17,1.04,1.29,1.26,1.52.04.05-.03.2,0,.3.19.6-.06,1.72.94,1.52-1.29.54-.98.54-1.26,1.52-.61,2.14-1.72,1.36-2.15,1.88-.25.3-.1.71-.05,1.17.16,1.3-.4,2.87-1.39,3.55-.25.17-.8.47-1.75.41-.19-.59-1.12-1.11.18-2.09l1.08.27.6-3.76c1.09-.32,3.08-.95,2.81-2.41-.13-.69-1.05-1.42-1.13-2.58-.25-3.92,2.72-2.39,3.95-3.17.11-.07,1.36-2.05,1.41-2.17.24-.56.28-2.65.57-3.41l-.98-.76c-.06-.59-.63-1.06-.63-1.52,0-.31.22-.17,0-1.22-.07-.3-.25-.45-.31-.61-.37-.96-1.1-2.03-1.2-2.34-.33-1.07.37-2.15-.51-3.16-1.08-1.24-2.74.15-3.17-1.2l-.47,1.22c-.55-.33-1.51-.56-1.57-.61-.05-.04-.12-.86-.48-.92-.32-.05-.66.45-1,.5-2.95.51-2.09.47-4.19,2.24.14-.73.48-1.4.63-2.13Z"/>
        <path class="cls-5" d="M71.59,74.65c-.49.23-2.44,1.42-3.15,1.83-1.21-.81-4.05-1.43-4.4-2.74-.08-.3.15-.89-.05-1.17l-1.21-.35c-.03-.1.04-.26,0-.3l1.27-.49,7.54,3.23Z"/>
        <path class="cls-17" d="M65.3,69.48c2.82,1.03,4.93,3.18,7.55,4.56-.97,1.03-.57.29-1.26.61l-7.54-3.23-1.27.49c-.22-.23-1.25-.34-1.26-1.52,1.11-.58,1.45.3,2.51.3-.22-1.45.98-1.02,1.26-1.22Z"/>
        <path class="cls-5" d="M67.19,77.08c-.53.42-1.08.85-1.64,1.27-.24.18-.49.37-.73.55-.5.07-1.27.12-2.17-.08-.59-.13-1.08-.34-1.44-.52.46-1.28,2.38-1.18,2.52-2.43.98.4,2.49.52,3.46,1.22Z"/>
        <path class="cls-3" d="M68.44,76.47c-.49.28-1.09.5-1.26.61-.97-.7-2.48-.81-3.46-1.22-.14-.06-.52-.9-1.26-.61.28-.98-.03-.98,1.26-1.52h.31c.36,1.31,3.19,1.92,4.4,2.74Z"/>
        <path class="cls-17" d="M79.77,71l-.63,1.22c-.2.04-.57.21-.94.3-.6-.96-1.81-1.5-1.89-2.74,1.34,1.06,1.89,1.06,3.46,1.22Z"/>
        <path class="cls-3" d="M82.91,71.61c-1.11.16-2.73.38-3.77.61l.63-1.22c1.03.11,2.26-.1,3.15.61Z"/>
        <path class="cls-3" d="M66.56,68.57c1.42,1.34,3.59,2.46,5.03,3.65.47.39,1.12,1.33,1.57,1.83-.09.04-.27-.05-.31,0-2.62-1.38-4.73-3.53-7.55-4.56.4-.27.1-.3,1.26-.91Z"/>
        <path class="cls-15" d="M62.78,21.72l-.94-.45c.21,2.24-3.75,2.68-3.78.15-.31-.29-2.31,1.91-4.33.99-1.76-.8-.52-2.93-.7-3.12-4.51-.16-3.75-6.5-.01-7.18s6.7,3.16,9.13,5.35c-.79-3.83-3.05-10.92-.58-14.41s9.91-.08,6.25,4.06c4.02.33,2.55,4.63-.94,4.26,1.03,2.68-.29,4.28-3.15,3.35.5,1.56.98,3.13,1.66,4.64.21.46.05.99.85.83-.32.11-3.29,1.42-3.46,1.52Z"/>
        <path class="cls-19" d="M88.89,33.58c.54.19.66.68.9,1.11,1.4,2.49,2.86,5.33,4.09,7.91,1.34,2.8,2.36,6.19,3.75,8.85.37.71.44.35,1.01.08-.18.51-.08,1.58-.63,1.98l-.95-.46c0-.1,0-.2,0-.3-.1-1.34-.58-2.05-.67-3.32l-.86-.05-.66-1.2c-.05-.18.05-.44,0-.61-1.09-3.77-2.1-4.83-3.57-7.96-.2-.43.02-1.04-.84-.86-.03-.09.03-.21,0-.3-.42-1.14-.57-2.15-1.05-3.25-.18-.41-.63-.03-.52-1.62Z"/>
        <path class="cls-3" d="M74.05,22.01c.29.05.51.11.82.21,0,0,1.03.3,1.98.8,2.82,1.49,4.75,5.6,4.75,5.6,4.82,7.03,8.54,15.68,11.7,23.52-2.07-1.64-1.86-6.2-5.33-3.79l-2.53,2.57c.35-2.26,2.04-3.83,4.11-4.74-.46-3.35-3.15-1.01-5.37-1.04.76-1.3,2.36-1.81,3.77-2.13l-.68-1.47c-2.4-.49-4.38.91-6.56,1.47,1.14-1.74,3.32-2.7,5.35-3.04l-.94-1.99c-2.18-.2-4.53.64-6.4,1.74-.85.5-1.25,1.63-2.41,1.47,1.68-2.45,4.78-4.3,7.87-4.56l-.95-1.98-6.91,1.07c-.28,0-.67.04-1.12.15-.58.15-.92.4-.96.34-.05-.07.34-.47.78-.78.57-.4,1.12-.57,1.49-.66,1.93-.5,3.86-1,5.79-1.49l-.99-2.38c-2.48-.29-5.3.24-7.56,1.26-1.86.84-3.21,2.45-4.97,3.41,2.51-3.63,6.76-5.97,11.32-6.24l-1.48-2.13c-3.95-.6-7.17,1.16-10.47,2.9,1.73-2.72,5.37-3.59,8.37-4.38.42-.11.88.21.74-.49-.63-.89-1.3-1.31-1.76-1.53-1.63-.76-3.58-.33-5.55.1-.76.17-1.17.23-1.99.34-.31.04-.15,0-.69.07-.35.04-.46.06-.48.02-.03-.05.07-.21.72-.67.46-.19,1.14-.45,1.96-.73.81-.28,1.21-.42,1.71-.55.91-.23,1.8-.44,2.88-.26Z"/>
        <path class="cls-3" d="M69.58,29.14c-.14.13-.38.33-.69.58-.89.73-1.26.93-1.77,1.46-.18.18-.44.47-.72.87-.03.03-.06.07-.07.06-.06-.03.26-.92.73-1.63.55-.83,1.24-1.28,2.61-2.16.44-.29.89-.57.96-.5.09.1-.51.77-1.05,1.32Z"/>
        <path class="cls-3" d="M93.45,52.44c.2.1.2.2,0,.3v-.3Z"/>
        <path class="cls-20" d="M36.67,68.26c.1.06.41-.04.63.15.85.72.82,2.09,1.08,2.91.74,2.42.87,1.54,2.74,1.66.36.02.78.38,1.11.39.95.02.96-1.26,1.5-1.78.74-.7,2.07-.42,1.76-2.1,1.54.12,2.68-.06,4.08-.62v3.34s-.63-1.62-.63-1.62c-1.45-.93-1.38.71-1.89,1.15-.56.48-2.52.64-2.75.84-.21.17-1.36,2.78-1.5,3.26-.24.84-.05,1.76-.43,2.58-.13.31-.43.15-.66.18.04.6-.06,1.23,0,1.83.27.06.65-.04.94,0-.04.25-.02.64,0,.91s.28.48.31.61c.06.25-.11.68,0,.99.11.34.72.29.89.73.66,1.7.33.79,1,1.63.08.1-.07.82.45,1.26.38.31.86.03,1.13.15.43.19.7.89,1.16,1,.64.16.93-.4,1.35-.58l1.09.61c.44-.18.36-.73.48-.91.08-.12.27-.21.31-.3l1.58.21v1.01s.94,0,.94,0c-.3-.52.16-1.66.94-1.52-.74,2.12-.5,3.23-3.29,1.52-.94,1.9-1.53.75-2.47.96-.7.15-1.03,1.7-2.2.89-.44-.3-.31-.88-.6-1.16-.25-.24-.93-.32-1.35-.67-1.47-1.24-.76-1.84-1.16-3.14s-1.27-1.86-1.51-4.17c-.22-.05-.67.16-.63-.18v-1.65c.21-.03.44.03.63,0-.01-.17.18-.47.18-.76-.03-.88-.99-1.6.09-3-.85-1.67-1.61-.73-2.62-.8-1.72-.12-1.51-3.41-1.8-4.35-.14-.47-.74-.6-.88-1.43-.31-.17-.91.08-.93-.74l1.24-2.31c-.02.98-.5,1.93-.31,3.04Z"/>
        <path class="cls-20" d="M57.12,84.38c-.22.86-1.9,1.73-2.83,1.52.31-.65,2.13-1.04,2.83-1.52Z"/>
        <path class="cls-20" d="M57.12,83.78c0-.05,0-.86,0-.91v.91Z"/>
        <path class="cls-6" d="M52.09,54.57c-.24.2-.93.28-1.12.61s.18.78.12,1.04c-.09.36-.69.33-.87.72-.14.29-1.21,4.11-1.14,4.33.13.43.68.75.8,1.38.17.87-.08,1.97.01,2.87-1.06-.43-1.34.61-1.43.62-1.17.17-1.29-1.12-2.02-1.53l.27,2.7c-1.45.13-1.95.93-2.83,1.69-.21.18-.75.11-.85.22-.21.23.11,1.1-.18,1.5-.26.35-.93.16-1.2.31-.3.16-.27.58-.43.6-.81.1-2.43-1.21-2.56-2.04-.05-.31.32-.81.2-.97-.08-.11-.68-.17-.93-.48-1.43-1.72.21-6.34.78-8.25.12-.4-.02-1.03.15-1.52.08-.23,2.41-4.05,2.57-4.23,1.08-1.23,2.9-1.48,4.22-2.31,1.56-.98,1.86-2.44,3.63-3.18,2.25-.94,1.81.13,2.07.15.39.02.96-.58,1.41.13.65.84.18,2.53-.02,3.53-.15.73-.49,1.4-.63,2.13ZM50.39,54.46c.22-.45,1.41-3.76,1.35-3.97-3.89-2.52-3.89,2.84-4.06,5.3.52-.05,1.22.13,1.69-.03.08-.03.97-1.22,1.01-1.29ZM40.45,59.14c-.62.94-1.41,2.09-1.76,3.26s-.29,2.91-.77,4.14c1.28.84,1.88,2.39,3.65,2.36.64,0,.28-.94,1.08-.33l.02-.89,1.24-.03c-.47-1.22.47-1.45.6-1.76.69-1.68.85-1.5,1.5-2.59.56-.94.81-2.5.41-3.55,1.75.15.63-.55.63-1.07v-4.56c0-.86-3-.31-3.63.14-.52.37-.74,1.33-1.07,1.64-.3.28-.79.14-.89.25-.22.24-.33,1.89-.39,2.38-.19-.04-.43,0-.62,0-.07.18.05.51,0,.6Z"/>
        <path class="cls-16" d="M51.46,73.13c-.2-.03-.42.03-.63,0,.2-1.52-.28-3.59,0-5.02.04-.22,2.01-3.68,2.19-3.88.26-.29,2.12-1.31,2.42-1.35.4-.05.83.23,1.2.21.62-.04,1.31-.4,1.83-.31.2.03.22.41.35.48.26.16.68.19.79.29.23.22.96,2.04.96,2.38,0,1.51-1.36,1.61-1.69,2.69-.31,1.01.45,2.47.33,3.38-.05.4-1.16,3.08-1.48,3.39-.1.1-2.21,1.48-2.34,1.52-1.54.4-3.62-.51-4.01-2.05-.15-.61.05-1.14.07-1.74.17.03.45-.1.58.04l.73,2.06,2.46-.27c-.44-1.12-.88-1.31,0-2.43-1.01.29-1.03-.79-1.61-1.36l.67-2.29.62.31c-.2-.74.9-3.07-.18-3.33-1.84-.43-2.93,3.08-2.38,4.4-.07.39-2.04.08-.26.91l-.63.15c.23.66.02,1.25,0,1.83Z"/>
        <path class="cls-6" d="M61.21,51.23c.19-.88-.45-.56-1-.69-.83-.21-1.68-.35-2.47-.67-.58-.47-.33-1.37-.13-1.96.05-.14,1.42-2.28,1.56-2.44.44-.49,1.12-.18,1.35-.38.18-.15-.07-.75.59-1.1.91-.49,2.59-.07,3.58.08.59,2.05.12,1.06,1.14,1.17.23.02,1.91.28,2,.34.28.21.18.81.39,1.01.18.18.75.13,1.02.37,1.38,1.27,2.52,2.92,2.51,4.86,0,.57-.4.91-.46,1.41-.09.77.17,1.9-.1,2.5-.04.08-.41.1-.54.29-.19.27-.14.7-.4.93-.14.12-.55.02-.74.16-.33.23-.24.85-.88.84-.09,0-1.64-.6-1.7-.67-.39-.46.68-1.52-1.31-1.17-.01-.1.01-.2,0-.3-.06-.49.05-1.02,0-1.52h-.63c-.03-.19.04-.42,0-.61-.24-1.26-.79-1.06-1.57-1.52-.42-.25-.78-.45-1.26-.61-.13-.04-.28-.22-.63-.3-.1-.02-.21.02-.31,0ZM63.1,45.45c-.34-.12-.71-.21-1.06-.3l-3.01,2.6.3.89c1.3.55,3.35,1.29,4.49,1.98.19.12.23.39.22.61h.62s.31-.6.31-.6l.63.91c-.35-1.23.79-.78,1.11-1.21s-.13-1.35,1.09-1.68v-.45c-.95-.1-1.25-1.07-1.62-1.78-1.47.21-1.16.12-2.15-.35-.17-.08-.22-.35-.94-.61ZM66.87,52.75c-.25.06-.65-.05-.94,0-.3,1.14.74,1.14,1.15,1.62.43.51.65,1.75,1.94,1.67.94-.84.41-1.06.54-1.82.16-.97.8-2.01.3-3-.75-1.48-2.98.3-2.99,1.52Z"/>
        <path class="cls-2" d="M49.89,75.56c.84,1.39,1,1.81,2.52,2.43.46.91-.57,1.29-.57,1.36-.04.81-.15,3.79-1,3.5l-.63,1.83c0-.34-.3-1.19.03-1.81l.6-.02c-.18-.35-.94-2.27-1.57-1.82l-.65,3.77,1.59.49c-.02.23.13.5-.18.64-1.97.95-3.32-.5-5.16-.64.51-1.68-1.13-1.49-.94-2.74h.63c.07.47,1.25,1.86,1.57,1.52l-.27-.77c1.53-1.38,1.87-5.17-1.3-4.1.36.93,0,1.79,0,2.74-1.05.27-.66-1.5-.56-1.91.07-.31,1.55-3.05,1.8-3.43.9-1.37,2.6-1.67,4.1-1.05Z"/>
        <path class="cls-6" d="M59.32,53.36c.09.05.41-.15.65.19.06.08.8,1.73.83,1.87.51,1.94-.93,2.45-1.8,4.03-.98.33-1.41.11-2.2,0,1.39-1.39,3.6-2,3.01-4.26-4.08-2.25-5.66,2.03-8.05,4.16.02,1.1.49,1.58,1.27,2.24-.15.11-.44.68-.63.91-.39.47-.1,1.1-.94.91.29-.72-.52-.91-.6-1.16-1.04-3.08,1-4.8,3.01-6.87.15-.15.04-.63.16-.72.2-.16.91-.08,1.38-.35.8-.46,1.47-1.16,2.34-1.55.07.05,1.02.28,1.57.61Z"/>
        <path class="cls-20" d="M56.81,59.44c.79.11,1.22.33,2.2,0-.35,1.1,1.55.09,1.89.61.06.09-.12.55.07.84.16.24.73.24.87.38.04.04-.05.39.09.51.82.7,1.98.94,2.42,2.23.04.51.33,1,.31,1.83-.02.97.11,2.06-1.25,2.13-.71-.95.03-3.11-.18-3.66-.34-.9-3.64-2.26-4.12-3.35l-2.95.46c-.69.41-2.96.79-3.37,1.29-.67.81-.31.33-.39-.21.19-.23.48-.8.63-.91.12-.08.57-.17,1.3-.72.24-.18.71-.13.84-.26.22-.22,0-.65.06-.84.03-.09.28-.2.31-.3.41.04.86-.06,1.26,0Z"/>
        <path class="cls-6" d="M42.65,80.43c.09-.5.48-.81.53-1.11.09-.47-.42-.99-.08-1.63s1.27-.51,1.39-.65c.23-.27-.21-1.26.35-1.64.25-.17.78-.04,1.01-.17.27-.15.22-.43.5-.56.24-.12.84.09.98-.04s-.13-1.24.5-1.5c1.75.38,1.54,1.6,2.04,2.43-1.5-.61-3.2-.31-4.1,1.05-.25.38-1.73,3.12-1.8,3.43-.1.41-.49,2.18.56,1.91,0,.2-.03.42,0,.61h-.63c-.19,1.25,1.45,1.06.94,2.74,1.85.14,3.19,1.59,5.16.64.31-.13.16-.41.18-.64.02-.2,0-.41,0-.61l.63-1.83c.85.28.96-2.69,1-3.5,0-.07,1.03-.45.57-1.36.45.19,1.07.23,1.57.31-.22.7.01,1.87-.13,2.45-.03.13-1.02,2.17-1.09,2.28-.3.46-1.25.72-1.43,1.03-.07.11-.02,1.51-.48,2.45-.05.1-.24.19-.31.3-.72-.18-1.02.07-1.57.3-.42.18-.71.74-1.35.58-.46-.11-.73-.81-1.16-1-.27-.12-.75.16-1.13-.15-.53-.43-.38-1.16-.45-1.26-.68-.84-.34.07-1-1.63-.17-.44-.78-.39-.89-.73-.1-.31.07-.73,0-.99l-.31-.61c-.02-.27-.04-.67,0-.91Z"/>
        <path class="cls-6" d="M64.67,58.83c.06.16.25.3.31.61-.52.17-.42.94,0,1.22,0,.46.57.93.63,1.52.03.27-.22,1.39,0,1.96l-.94,1.69c.02-.83-.28-1.32-.31-1.83-.12-1.54-.19-1.41-.55-2.59-.05-.16.19-.99-.08-1.37l-1.88,1.22c-.14-.14-.71-.14-.87-.38-.19-.29-.01-.75-.07-.84.57-1.82,2.21-1.45,3.77-1.22Z"/>
        <path class="cls-3" d="M70.33,60.66c-.07.39.23,2.46,0,2.74l-1.57-.91c.11-.28-.31-.77-.31-.91,0-.1,0-.2,0-.3l1.89-.61Z"/>
        <path class="cls-9" d="M97.38,3.47c.22.08.58.49,1.03.67,7.53,2.9,15.01,5.91,22.55,8.79-.49,3.94-2.22,8.21-2.19,12.15-1.01,2.96-1.73,6.37-2.31,9.48-.08.44-.48,1.18.11,1.47-.2.6-.09,1.42-.61,2-.48.33-1.06.52-1.6.74-6.45,2.64-11.6,3.8-14.78,10.65-.33.71-.68,1.39-.94,2.13-.57.26-.64.63-1.01-.08-1.39-2.66-2.41-6.05-3.75-8.85-1.23-2.58-2.69-5.42-4.09-7.91-.24-.43-.36-.91-.9-1.11,0-.1,0-.2,0-.3l4.49-29.27c.88-1.81,2.49-1.12,4-.54Z"/>
        <path class="cls-18" d="M123.18,12.9l16.67-2.74c-.29,1.2-.48,2.42-.63,3.65-.03.3.04.62,0,.91-1.03,1.06-.81,2.91-.94,4.26,0,.1.01.2,0,.3-.97,1.39-.73,3.31-1.26,4.87-.21.01-.42,0-.63,0l-.31.3c-7.78,1.46-13.21,7.08-16.35,13.85l-5.35.45c.53-.22,1.12-.41,1.6-.74.51-.58.41-1.4.61-2,.77-2.38,2.57-7.47,2.52-9.73l4.09-13.38Z"/>
        <path class="cls-18" d="M119.4,1.34c.29,2.35-1.97,3.99.53,5.73s8.13,2.94,11.25,2.47c1.7-.26,1.57-1.47,2.06-2.72h.31l.31.3c1.68.58,3.41,1.13,5.03,1.83.24.87-1.28.72-1.84.81-5.05.85-10.08,1.8-15.15,2.54-7.62-2.77-15.19-6.5-22.85-9.09-.57-.19-1.05-.46-1.69-.34.13-.33.52-.46.85-.54,6.1.02,15.75-4.05,21.17-.98Z"/>
        <path class="cls-4" d="M119.72,1.34c.29.23.63,1.39,1.05,1.73,1.4,1.14,6.97,2.42,8.87,2.53,1.41.08,2.61-.43,3.93,0,0,.2,0,.41,0,.61-.26.14-.23.4-.31.61-.49,1.25-.37,2.46-2.06,2.72-3.12.47-8.66-.67-11.25-2.47s-.23-3.37-.53-5.73c.08.05.25-.05.31,0Z"/>
        <path class="cls-1" d="M133.56,5.6c-1.32-.43-2.51.08-3.93,0-1.89-.11-7.47-1.39-8.87-2.53-.42-.34-.76-1.5-1.05-1.73.28-1.72,4.11-1.33,5.5-1.21,1.73.15,6.71,1.57,7.87,2.73,1.31,1.31.53,1.62.47,2.74Z"/>
        <path class="cls-13" d="M121.92,12.29c.39.14.85.43,1.26.61l-4.09,13.38c0-.08-.31-.58-.31-1.22-.02-3.94,1.7-8.2,2.19-12.15-7.54-2.88-15.02-5.88-22.55-8.79-.46-.18-.82-.58-1.03-.67.04-.19-.06-.47,0-.61.64-.12,1.12.15,1.69.34,7.66,2.59,15.22,6.32,22.85,9.09Z"/>
        <path class="cls-1" d="M139.22,13.81c.14-1.23.33-2.45.63-3.65l-16.67,2.74c-.4-.17-.86-.46-1.26-.61,5.07-.73,10.1-1.69,15.15-2.54.56-.09,2.07.06,1.84-.81,2.17.93,1.24,3.17.31,4.87Z"/>
        <path class="cls-1" d="M133.56,6.81h-.31c.08-.21.05-.46.31-.61,0,.2,0,.41,0,.61Z"/>
        <path class="cls-4" d="M133.87,7.12l-.31-.3.31.3Z"/>
        <path class="cls-8" d="M120.35,39.97c-.42,1.3-.54,3.45-.94,4.87,1.04,1,8.6-2.36,10.07-2.13,1.15.18,1.97.96,3.61,2.44.88.79,2.09,1.89,3.31,3.65.42.61,2.25,3.62,3.21,8.11.3,1.41.42,3.02.26,5.13-.16,2.14-2.06,9.12-4.11,10.02-.96.42-8.19-.88-9.91-1.06-8.62-.86-17.28-1.54-25.95-1.66-7.55-13.97,4.25-30.87,20.45-29.37ZM110.28,45.14c-1.35.15-1.7,2.31-1.43,3.35,1.75,6.62,15.68,7.26,20.16,3.35,1.65-1.44,2.61-3.77.78-5.48.42,3.66-3.73,4.91-6.77,5.17-4.81.41-12.17-.68-12.74-6.38Z"/>
        <path class="cls-13" d="M134.5,39.06c.09-.12.21-.2.31-.3-.06.12-.31.25-.31.3Z"/>
        <path class="cls-3" d="M68.76,65.52c.06.05.25.24.31.3.92.99,1.73,2.4,2.83,3.35-.11.58-.91-.17-1.09-.31-.67-.51-1.36-1.21-2.08-1.65-.34-.21-.74-.09-.92-.17-.56-.23-.38-1.32-.16-1.83l.32-.29c.2.27.54.4.79.6Z"/>
        <path class="cls-2" d="M68.44,61.57c0,.14.42.64.31.91-.09.22-1.09.82-.63,1.83-.31-.43-2.04-2.31-1.57-2.74h1.89Z"/>
        <path class="cls-2" d="M69.07,65.83c1.96,1.14,3.75,2.93,4.88,4.86-.52-.69-1.45-1-2.05-1.51-1.1-.95-1.91-2.36-2.83-3.35Z"/>
        <path class="cls-2" d="M66.87,68.26l4.72,3.95c-1.45-1.19-3.61-2.31-5.03-3.65.03-.01.25-.23.31-.3Z"/>
        <path class="cls-2" d="M74.58,71c.2.1.2.2,0,.3v-.3Z"/>
        <polygon class="cls-2" points="68.76 65.22 68.76 64.91 69.07 65.07 68.76 65.22"/>
        <path class="cls-17" d="M63.73,75.87c-.14,1.26-2.06,1.16-2.52,2.43-.27-.06-.65.04-.94,0,.07-.32-.15-.93.05-1.17.44-.52,1.54.27,2.15-1.88.74-.29,1.12.55,1.26.61Z"/>
        <path class="cls-17" d="M62.78,72.22l1.21.35c.19.28-.04.86.05,1.17h-.31c-1.01.19-.75-.93-.94-1.52Z"/>
        <path class="cls-14" d="M50.52,86.82c-.12.19-.04.74-.48.91l-1.09-.61c.55-.23.85-.48,1.57-.3Z"/>
        <path class="cls-14" d="M42.97,81.95c-.03-.13-.3-.33-.31-.61l.31.61Z"/>
        <path class="cls-2" d="M41.08,58.53c.06-.49.17-2.14.39-2.38.1-.11.59.03.89-.25.33-.31.54-1.27,1.07-1.64.63-.45,3.63-1,3.63-.14v4.56c0,.52,1.11,1.23-.63,1.07.4,1.05.15,2.61-.41,3.55-.66,1.1-.82.91-1.5,2.59-.13.32-1.06.55-.6,1.76l-1.24.03-.02.89c-.8-.61-.44.32-1.08.33-1.76.03-2.37-1.52-3.65-2.36.48-1.23.43-2.99.77-4.14s1.13-2.32,1.76-3.26c1.61-.05-.46,2.38-.65,2.87-.14.36-.91,2.86-.88,3.01.11.56,1.83,1.71,2.42,1.37.8-1.93,2.06-4.07,2.78-5.99.52-1.38.64-3.12,1.05-4.4.12-.36.9,0,.62-.82-.53.07-1.4-.17-1.82.06-.28.16-2.35,2.97-2.27,3.58-.39.13-.59-.3-.63-.3Z"/>
        <path class="cls-5" d="M41.08,58.53s.24.44.63.3c-.08-.62,1.99-3.43,2.27-3.58.42-.24,1.3,0,1.82-.06.28.83-.5.46-.62.82-.42,1.29-.53,3.03-1.05,4.4-.72,1.92-1.97,4.06-2.78,5.99-.59.33-2.32-.81-2.42-1.37-.03-.15.74-2.66.88-3.01.19-.49,2.25-2.92.65-2.87.06-.09-.07-.42,0-.6.2-.01.44-.05.62,0Z"/>
        <path class="cls-2" d="M50.39,54.46c-.04.07-.93,1.27-1.01,1.29-.47.16-1.17-.01-1.69.03.16-2.46.17-7.82,4.06-5.3.05.21-1.13,3.52-1.35,3.97Z"/>
        <path class="cls-5" d="M51.46,73.13c.02-.58.24-1.17,0-1.83l.63-.15c-1.78-.82.2-.52.26-.91-.55-1.32.55-4.83,2.38-4.4,1.08.26-.02,2.59.18,3.33l-.62-.31-.67,2.29c.58.58.6,1.65,1.61,1.36-.89,1.12-.45,1.31,0,2.43l-2.46.27-.73-2.06c-.14-.13-.41-.01-.58-.04Z"/>
        <path class="cls-2" d="M63.1,45.45l.13,1.24c-.3.21-2.91.75-2.33,1.49,1.77.34,3.11,1.35,5.03,1.52-.22-.43-.23-1.92-.37-2.08-.19-.21-1.67-.19-1.52-1.57.99.47.68.56,2.15.35.37.71.67,1.68,1.62,1.78v.45c-1.21.33-.76,1.25-1.09,1.68s-1.47-.02-1.11,1.21l-.63-.91-.31.6h-.62c.01-.22-.03-.49-.22-.61-1.15-.7-3.19-1.43-4.49-1.98l-.3-.89,3.01-2.6c.35.09.72.18,1.06.3Z"/>
        <path class="cls-5" d="M64.04,46.05c-.16,1.38,1.32,1.36,1.52,1.57.14.16.15,1.65.37,2.08-1.92-.17-3.26-1.18-5.03-1.52-.58-.75,2.03-1.28,2.33-1.49l-.13-1.24c.73.26.78.53.94.61Z"/>
        <path class="cls-2" d="M66.87,52.75c0-1.21,2.24-3,2.99-1.52.5.98-.14,2.03-.3,3-.13.75.4.97-.54,1.82-1.29.08-1.51-1.16-1.94-1.67s-1.45-.49-1.15-1.62c.29-.06.69.06.94,0,0,1.02,1.29.79,1.26,1.91l.94.22v-3.05c-1.35-.35-1.16.66-2.2.91Z"/>
        <path class="cls-14" d="M64.98,53.66c-.8-.08-1.49-.73-1.57-1.52.78.46,1.33.26,1.57,1.52Z"/>
        <path class="cls-14" d="M64.98,54.27h.63c.05.5-.06,1.03,0,1.52h-.63c-.05-.5.06-1.03,0-1.52Z"/>
        <path class="cls-14" d="M62.15,51.53l-.63.3v-.61c.35.08.49.26.63.3Z"/>
        <path class="cls-5" d="M44.54,81.95c0-.95.36-1.8,0-2.74,3.18-1.07,2.83,2.71,1.3,4.1l.27.77c-.32.34-1.51-1.05-1.57-1.52-.03-.19,0-.41,0-.61Z"/>
        <path class="cls-5" d="M50.83,82.86l-.6.02c-.33.62-.02,1.47-.03,1.81,0,.2.02.41,0,.61l-1.59-.49.65-3.77c.63-.45,1.39,1.48,1.57,1.82Z"/>
        <path class="cls-14" d="M59.32,53.36l.47-1.22c.43,1.35,2.09-.05,3.17,1.2.88,1.01.18,2.09.51,3.16.09.31.83,1.38,1.2,2.34-1.57-.24-3.2-.6-3.77,1.22-.34-.52-2.24.49-1.89-.61.88-1.58,2.32-2.09,1.8-4.03-.04-.14-.77-1.79-.83-1.87-.24-.33-.56-.13-.65-.19Z"/>
        <path class="cls-14" d="M64.98,60.66c-.42-.28-.52-1.05,0-1.22.22,1.04,0,.91,0,1.22Z"/>
        <path class="cls-2" d="M53.03,61.57c-.78-.66-1.25-1.13-1.27-2.24,2.39-2.13,3.97-6.4,8.05-4.16.59,2.26-1.62,2.87-3.01,4.26-.4-.06-.85.04-1.26,0,.07-.18-.16-.61.06-.86.09-.09.56-.02.87-.27.34-.27,1.91-1.81,1.91-2.06l-.53-.74c-1.72-.22-1.49.86-1.9,1.2-1.34,1.13-5.4,3.8-.73,3.03-.06.19.16.62-.06.84-.13.13-.6.08-.84.26-.73.56-1.18.64-1.3.72Z"/>
        <path class="cls-5" d="M55.23,59.74c-4.67.77-.6-1.9.73-3.03.41-.35.18-1.42,1.9-1.2l.53.74c0,.25-1.57,1.79-1.91,2.06-.31.25-.78.18-.87.27-.22.24,0,.67-.06.86-.04.11-.28.21-.31.3Z"/>
        <path class="cls-2" d="M61.84,61.26l1.88-1.22c.27.38.03,1.21.08,1.37.36,1.17.44,1.05.55,2.59-.44-1.29-1.61-1.53-2.42-2.23-.14-.12-.05-.47-.09-.51Z"/>
        <path class="cls-1" d="M119.09,26.28c.06,2.26-1.75,7.36-2.52,9.73-.6-.29-.2-1.03-.11-1.47.58-3.11,1.3-6.52,2.31-9.48,0,.64.31,1.13.31,1.22Z"/>
        <path class="cls-1" d="M136.08,24.46l.31-.3-.31.3Z"/>
        <path class="cls-3" d="M110.28,45.14c.57,5.7,7.92,6.79,12.74,6.38,3.04-.26,7.19-1.5,6.77-5.17,1.83,1.71.87,4.04-.78,5.48-4.48,3.91-18.4,3.27-20.16-3.35-.28-1.04.08-3.2,1.43-3.35Z"/>
        <path class="cls-5" d="M66.87,52.75c1.04-.25.85-1.26,2.2-.91v3.05s-.94-.22-.94-.22c.03-1.12-1.27-.89-1.26-1.91Z"/>
        <path class="cls-1" d="M136.48,24.17c.18,0,.36,0,.54-.01,1.04-4.66,2.08-9.31,3.11-13.97-.31-.1-.62-.21-.94-.31-.91,4.77-1.81,9.53-2.72,14.3Z"/>
      </g>
    </g>
  </g>
</svg>